<?xml version="1.0" standalone="no"?>
<!DOCTYPE svg PUBLIC "-//W3C//DTD SVG 20010904//EN"
 "http://www.w3.org/TR/2001/REC-SVG-20010904/DTD/svg10.dtd">
<svg version="1.0" xmlns="http://www.w3.org/2000/svg"
 width="1920.000000pt" height="1080.000000pt" viewBox="0 0 1920.000000 1080.000000"
 preserveAspectRatio="xMidYMid meet">

<g transform="translate(0.000000,1080.000000) scale(0.100000,-0.100000)"
fill="#000000" stroke="none">
<path d="M0 5400 l0 -5400 9600 0 9600 0 0 5400 0 5400 -9600 0 -9600 0 0
-5400z m19178 5342 c-2 -23 -8 -27 -33 -27 -24 0 -31 5 -33 24 -5 32 23 54 50
40 13 -7 18 -19 16 -37z m-5633 -626 c0 -36 -26 -56 -49 -37 -31 26 -11 75 29
69 15 -2 20 -11 20 -32z m-6285 9 c19 -23 3 -57 -27 -53 -34 4 -51 31 -34 52
17 20 45 21 61 1z m2108 -353 c-2 -23 -8 -27 -33 -27 -24 0 -31 5 -33 24 -5
32 23 54 50 40 13 -7 18 -19 16 -37z m-6178 -702 c13 -25 -10 -53 -41 -48 -30
4 -39 46 -14 64 20 15 42 8 55 -16z m6758 -97 c-10 -2 -28 -2 -40 0 -13 2 -5
4 17 4 22 1 32 -1 23 -4z m222 -101 c41 -25 81 -52 88 -61 28 -34 51 -100 66
-188 9 -50 28 -121 41 -158 35 -93 33 -134 -8 -174 -18 -18 -54 -45 -81 -59
-26 -15 -56 -40 -65 -57 -28 -52 -103 -117 -170 -149 -64 -30 -70 -31 -201
-31 -123 0 -140 3 -197 27 -157 66 -237 153 -273 293 -25 102 -25 177 0 234
11 24 20 62 20 86 0 93 41 153 126 185 57 21 182 45 190 37 3 -3 -26 -10 -64
-17 -85 -14 -185 -59 -208 -94 -9 -15 -19 -48 -21 -74 l-5 -47 30 46 c80 123
246 187 462 177 77 -4 125 -12 180 -32 41 -14 79 -27 85 -28 5 -2 16 -10 23
-18 8 -9 7 -3 -3 17 -8 18 -19 32 -24 30 -4 -1 -20 13 -35 31 -23 26 -36 32
-69 33 l-42 2 35 6 35 7 -40 14 c-22 7 -74 16 -115 20 l-75 6 75 10 c87 11
112 3 240 -74z m-323 52 c-3 -3 -12 -4 -19 -1 -8 3 -5 6 6 6 11 1 17 -2 13 -5z
m-467 -243 c0 -38 -26 -61 -35 -32 -8 28 3 61 21 61 9 0 14 -10 14 -29z
m-4332 -23 c32 -32 -2 -79 -43 -60 -39 18 -27 72 15 72 9 0 21 -5 28 -12z
m5380 -350 c-2 -36 -7 -44 -25 -46 -27 -4 -28 6 -9 53 21 49 38 45 34 -7z m2
-119 c0 -16 -31 -22 -43 -10 -9 9 -9 14 2 20 16 10 41 4 41 -10z m-1025 1 c3
-5 2 -10 -4 -10 -5 0 -13 5 -16 10 -3 6 -2 10 4 10 5 0 13 -4 16 -10z m755
-125 c0 -8 -7 -15 -15 -15 -26 0 -18 20 13 29 1 1 2 -6 2 -14z m-6256 -117 c8
-14 6 -22 -10 -39 -18 -17 -25 -19 -43 -10 -20 11 -29 50 -14 65 12 12 56 2
67 -16z m4100 -74 c24 -9 21 -61 -4 -69 -39 -12 -66 35 -38 63 14 14 20 14 42
6z m6124 -536 c18 -18 14 -46 -7 -58 -25 -13 -48 -4 -56 21 -12 38 35 65 63
37z m2851 -342 c18 -22 -3 -56 -34 -56 -18 0 -26 7 -31 24 -3 14 -3 30 1 35 9
16 51 13 64 -3z m-11891 -88 c7 -7 12 -22 12 -35 0 -31 -47 -44 -67 -18 -17
24 -16 30 3 49 19 19 36 20 52 4z m8820 -80 c18 -18 14 -46 -7 -58 -25 -13
-48 -4 -56 21 -12 38 35 65 63 37z m-13267 -28 c21 -12 25 -40 7 -58 -18 -18
-46 -14 -58 9 -9 16 -8 25 6 40 20 22 20 22 45 9z m9374 -769 c7 -12 -12 -24
-25 -16 -11 7 -4 25 10 25 5 0 11 -4 15 -9z m-4284 -27 c17 -21 0 -48 -33 -52
-28 -3 -42 18 -33 49 8 23 48 25 66 3z m13239 -619 c19 -23 3 -57 -27 -53 -34
4 -51 31 -34 52 17 20 45 21 61 1z m-2106 -371 c21 -8 21 -48 0 -65 -31 -26
-70 25 -44 56 14 17 21 18 44 9z m-7364 -239 c23 -28 -9 -72 -45 -59 -36 14
-24 74 15 74 10 0 23 -7 30 -15z m4078 -7 c31 -31 3 -76 -39 -63 -33 11 -18
75 16 75 6 0 16 -5 23 -12z m-198 -1118 c15 -28 -22 -65 -50 -50 -19 10 -27
49 -13 63 14 14 53 6 63 -13z m-2989 -341 c9 -18 7 -25 -9 -41 -16 -16 -23
-18 -41 -9 -23 13 -28 40 -9 59 19 19 46 14 59 -9z m8133 -31 c23 -38 -36 -77
-64 -43 -10 12 -10 21 -1 41 13 29 47 30 65 2z m-10879 -488 c14 -43 -44 -67
-68 -28 -8 12 -7 21 2 32 19 23 58 20 66 -4z m120 -539 c7 -12 -12 -24 -25
-16 -11 7 -4 25 10 25 5 0 11 -4 15 -9z m-5691 -250 c33 -36 -18 -83 -52 -49
-17 17 -15 45 6 57 24 14 26 14 46 -8z m556 -16 c0 -8 -7 -15 -15 -15 -16 0
-20 12 -8 23 11 12 23 8 23 -8z m13235 -78 c26 -20 13 -67 -18 -67 -43 0 -60
35 -31 64 19 19 25 20 49 3z m-9540 -91 c0 -36 -26 -56 -49 -37 -31 26 -11 75
29 69 15 -2 20 -11 20 -32z m6460 -135 c7 -12 -12 -24 -25 -16 -11 7 -4 25 10
25 5 0 11 -4 15 -9z m-962 -526 c19 -19 11 -52 -15 -60 -37 -12 -64 35 -36 63
16 16 33 15 51 -3z m-2795 -767 c19 -19 14 -46 -9 -59 -18 -9 -25 -7 -41 9
-16 16 -18 23 -9 41 13 23 40 28 59 9z m-6873 -183 c0 -27 -3 -30 -30 -30 -21
0 -31 5 -33 18 -6 33 6 49 35 45 24 -3 28 -8 28 -33z"/>
<path d="M10202 8835 c2 -5 14 -31 26 -56 53 -113 73 -356 38 -473 -9 -32 -16
-60 -14 -61 2 -2 25 12 51 31 50 36 69 65 49 72 -15 5 -16 34 -2 48 7 7 3 29
-10 66 -11 31 -27 101 -36 155 -18 112 -39 167 -79 203 -15 14 -26 21 -23 15z"/>
<path d="M9385 8525 c-15 -75 -16 -80 -5 -65 9 11 10 5 5 -26 -7 -48 31 -168
46 -142 8 14 -5 79 -31 161 -5 15 -6 43 -3 62 6 40 -4 48 -12 10z"/>
<path d="M10231 8343 c0 -12 -5 -23 -10 -25 -10 -4 -101 -122 -96 -126 1 -2
21 5 44 14 37 15 43 22 57 70 8 30 13 62 11 72 -4 13 -5 12 -6 -5z"/>
<path d="M9422 8211 c13 -24 41 -59 63 -78 70 -61 76 -55 12 9 -35 35 -71 74
-81 88 -9 14 -7 5 6 -19z"/>
<path d="M9477 8194 c91 -129 275 -212 413 -186 34 6 69 9 78 6 12 -4 13 -3 4
3 -9 7 -3 13 23 20 19 6 33 7 29 2 -3 -5 2 -6 11 -3 9 4 14 9 11 11 -3 3 13
15 34 27 36 19 100 88 100 106 0 13 -103 -24 -155 -56 -95 -58 -154 -77 -233
-77 -61 1 -83 6 -138 33 -35 17 -87 54 -114 81 -28 28 -50 47 -50 43 0 -3 -8
0 -17 7 -12 10 -11 5 4 -17z"/>
</g>
</svg>
