<svg width="250.3" height="75.2" viewBox="0 0 250.3 75.2" xmlns="http://www.w3.org/2000/svg"><g id="svgGroup" stroke-linecap="round" fill-rule="evenodd" font-size="9pt" stroke="#ffffff" stroke-width="0.25mm" fill="#000" style="stroke:#ffffff;stroke-width:0.25mm;fill:#000"><path d="M 183.3 74 L 174.3 74 L 174.3 22 L 183 22 L 183 30.7 Q 185.8 26.5 190.1 23.65 A 17.205 17.205 0 0 1 199.302 20.809 A 20.858 20.858 0 0 1 199.9 20.8 A 20.994 20.994 0 0 1 204.317 21.24 Q 207.303 21.882 209.585 23.463 A 13.128 13.128 0 0 1 210.05 23.8 A 15.751 15.751 0 0 1 215.498 31.489 A 19.154 19.154 0 0 1 215.6 31.8 Q 218.7 27.2 222.95 24 A 15.669 15.669 0 0 1 229.741 21.116 A 21.446 21.446 0 0 1 233.5 20.8 A 21.437 21.437 0 0 1 238.388 21.322 Q 241.974 22.162 244.463 24.351 A 12.994 12.994 0 0 1 246.15 26.15 A 18.992 18.992 0 0 1 249.561 33.422 Q 250.3 36.472 250.3 40.1 L 250.3 74 L 241.3 74 L 241.3 40.8 A 19.042 19.042 0 0 0 240.963 37.111 Q 240.527 34.905 239.528 33.161 A 10.982 10.982 0 0 0 238.8 32.05 A 7.974 7.974 0 0 0 232.987 28.754 A 10.678 10.678 0 0 0 231.9 28.7 A 11.926 11.926 0 0 0 225.141 30.827 A 15.996 15.996 0 0 0 223.55 32.05 Q 219.7 35.4 216.8 39.9 L 216.8 74 L 207.8 74 L 207.8 40.8 A 19.042 19.042 0 0 0 207.463 37.111 Q 207.027 34.905 206.028 33.161 A 10.982 10.982 0 0 0 205.3 32.05 A 7.974 7.974 0 0 0 199.487 28.754 A 10.678 10.678 0 0 0 198.4 28.7 A 12.02 12.02 0 0 0 192.081 30.528 A 16.244 16.244 0 0 0 190.1 31.95 Q 186.2 35.2 183.3 39.6 L 183.3 74 Z M 68.6 69 L 62.4 75 L 35.5 47.3 L 35.5 74 L 26.5 74 L 26.5 0 L 35.5 0 L 35.5 42.3 L 59 21 L 64.2 26.7 L 44.1 44.5 L 68.6 69 Z M 86.6 74 L 77.6 74 L 77.6 22 L 86.3 22 L 86.3 33.3 Q 87.6 30 89.8 27.15 Q 92 24.3 95.3 22.55 A 14.817 14.817 0 0 1 99.98 21.026 A 19.459 19.459 0 0 1 103 20.8 Q 104.5 20.8 106 20.95 A 18.972 18.972 0 0 1 107.055 21.084 Q 107.555 21.162 107.982 21.262 A 8.817 8.817 0 0 1 108.5 21.4 L 105.8 30.7 A 9.763 9.763 0 0 0 103.655 30.088 Q 102.559 29.9 101.3 29.9 A 12.958 12.958 0 0 0 94.67 31.746 A 15.609 15.609 0 0 0 94.25 32 Q 90.922 34.086 88.778 38.442 A 22.927 22.927 0 0 0 88.75 38.5 Q 86.987 42.107 86.67 47.328 A 39.09 39.09 0 0 0 86.6 49.7 L 86.6 74 Z M 123.1 71.75 A 24.559 24.559 0 0 0 127.698 73.84 Q 131.753 75.2 136.4 75.2 Q 143.8 75.2 149.65 71.8 Q 155.5 68.4 158.9 62.25 A 26.255 26.255 0 0 0 161.553 55.109 A 34.184 34.184 0 0 0 162.3 47.8 A 34.542 34.542 0 0 0 161.815 41.891 A 25.795 25.795 0 0 0 158.85 33.45 Q 155.4 27.4 149.55 24.1 A 24.848 24.848 0 0 0 144.909 22.073 A 27.738 27.738 0 0 0 136.4 20.8 A 31.325 31.325 0 0 0 134.82 20.839 A 26.169 26.169 0 0 0 123.2 24.1 Q 117.3 27.4 113.9 33.5 A 26.023 26.023 0 0 0 111.151 41.09 A 35.006 35.006 0 0 0 110.5 48 A 34.82 34.82 0 0 0 110.765 52.354 A 27.451 27.451 0 0 0 113.85 62.15 Q 117.2 68.3 123.1 71.75 Z M 9.5 74 L 0 74 L 0 4 L 9.5 4 L 9.5 74 Z M 136.4 67.2 Q 144.3 67.2 148.7 61.85 A 18.802 18.802 0 0 0 152.519 53.76 A 27.105 27.105 0 0 0 153.1 48 Q 153.1 42.8 150.9 38.45 A 19.198 19.198 0 0 0 146.728 32.881 A 18.17 18.17 0 0 0 144.95 31.45 Q 141.2 28.8 136.4 28.8 A 19.249 19.249 0 0 0 131.174 29.472 A 14.037 14.037 0 0 0 124.1 34 A 17.878 17.878 0 0 0 120.426 41.374 Q 119.7 44.306 119.7 47.8 Q 119.7 53 121.9 57.45 A 19.437 19.437 0 0 0 125.43 62.49 A 17.627 17.627 0 0 0 127.85 64.55 Q 131.6 67.2 136.4 67.2 Z" vector-effect="non-scaling-stroke"/></g></svg>