<svg width="114.25" height="35.6" viewBox="0 0 114.25 35.6" xmlns="http://www.w3.org/2000/svg"><g id="svgGroup" stroke-linecap="round" fill-rule="evenodd" font-size="9pt" stroke="#ffffff" stroke-width="0.25mm" fill="#ffffff" style="stroke:#ffffff;stroke-width:0.25mm;fill:#ffffff"><path d="M 99.6 35 L 95.6 35 L 95.6 20.85 Q 95.6 18.85 95.425 17.375 Q 95.277 16.126 94.895 15.217 A 5.27 5.27 0 0 0 94.75 14.9 A 3.511 3.511 0 0 0 93.971 13.856 A 3.276 3.276 0 0 0 93.325 13.4 A 3.739 3.739 0 0 0 92.442 13.067 Q 92.02 12.963 91.523 12.924 A 7.941 7.941 0 0 0 90.9 12.9 A 6.224 6.224 0 0 0 89.036 13.168 A 5.127 5.127 0 0 0 87.075 14.3 A 7.393 7.393 0 0 0 84.969 17.735 A 8.775 8.775 0 0 0 84.95 17.8 L 84.95 35 L 80.95 35 L 80.95 10 L 83.75 10 L 84.5 13.05 L 84.7 13.05 Q 86.05 11.45 87.825 10.425 Q 89.257 9.598 91.388 9.438 A 14.205 14.205 0 0 1 92.45 9.4 Q 94.85 9.4 96.375 10.325 Q 97.658 11.103 98.463 12.855 A 9.783 9.783 0 0 1 98.75 13.55 Q 99.9 11.6 101.925 10.5 A 9.124 9.124 0 0 1 105.524 9.442 A 11.159 11.159 0 0 1 106.5 9.4 A 15.446 15.446 0 0 1 108.041 9.472 Q 108.797 9.548 109.444 9.704 A 7.822 7.822 0 0 1 110.05 9.875 Q 111.5 10.35 112.45 11.55 A 5.951 5.951 0 0 1 113.203 12.812 Q 113.471 13.408 113.664 14.124 A 11.681 11.681 0 0 1 113.825 14.8 Q 114.25 16.85 114.25 20 L 114.25 35 L 110.25 35 L 110.25 19.95 Q 110.25 18.15 110.075 16.825 Q 109.924 15.684 109.514 14.877 A 4.093 4.093 0 0 0 109.375 14.625 Q 108.85 13.75 107.925 13.325 A 4.112 4.112 0 0 0 107.097 13.054 Q 106.684 12.962 106.199 12.925 A 9.185 9.185 0 0 0 105.5 12.9 A 7.181 7.181 0 0 0 103.911 13.065 Q 102.802 13.317 101.993 13.952 A 4.368 4.368 0 0 0 101.6 14.3 Q 100.392 15.508 99.779 17.61 A 12.578 12.578 0 0 0 99.6 18.3 L 99.6 35 Z M 27.85 35 L 19.5 23.75 L 17.2 23.75 L 17.2 35 L 13.2 35 L 13.2 0 L 17.2 0 L 17.2 21.3 L 19.25 20.6 L 27 10 L 31.65 10 L 24 20.05 L 21.95 21.7 L 24.45 23.7 L 32.8 35 L 27.85 35 Z M 0 35 L 0 0 L 4.15 0 L 4.15 35 L 0 35 Z M 53.026 18.822 A 22.924 22.924 0 0 0 52.75 22.5 A 24.061 24.061 0 0 0 52.857 24.81 A 18.803 18.803 0 0 0 53.4 27.875 A 13.427 13.427 0 0 0 53.888 29.357 A 10.72 10.72 0 0 0 55.4 32.025 Q 56.75 33.75 58.825 34.675 A 9.081 9.081 0 0 0 58.898 34.707 Q 60.036 35.202 61.389 35.423 A 14.369 14.369 0 0 0 63.7 35.6 A 13.856 13.856 0 0 0 66.413 35.348 A 9.159 9.159 0 0 0 71.825 32.225 Q 73.767 29.905 74.374 26.178 A 22.924 22.924 0 0 0 74.65 22.5 A 24.061 24.061 0 0 0 74.543 20.19 A 18.803 18.803 0 0 0 74 17.125 A 13.427 13.427 0 0 0 73.512 15.643 A 10.72 10.72 0 0 0 72 12.975 Q 70.65 11.25 68.575 10.325 A 9.081 9.081 0 0 0 68.502 10.293 Q 67.364 9.798 66.011 9.577 A 14.369 14.369 0 0 0 63.7 9.4 A 13.856 13.856 0 0 0 60.987 9.652 A 9.159 9.159 0 0 0 55.575 12.775 Q 53.633 15.095 53.026 18.822 Z M 49.8 10 L 48.95 13.85 A 10.123 10.123 0 0 0 47.399 13.46 A 7.97 7.97 0 0 0 46.1 13.35 A 6.355 6.355 0 0 0 44.685 13.498 Q 43.653 13.734 42.907 14.343 A 3.964 3.964 0 0 0 42.7 14.525 Q 41.45 15.7 41.15 17.5 L 41.15 35 L 37.15 35 L 37.15 10 L 39.95 10 L 40.7 13.05 L 40.9 13.05 A 9.077 9.077 0 0 1 41.869 11.632 A 6.779 6.779 0 0 1 43.175 10.425 A 4.93 4.93 0 0 1 44.895 9.677 Q 45.653 9.5 46.55 9.5 A 10.011 10.011 0 0 1 47.986 9.61 Q 48.683 9.711 49.445 9.905 A 17.32 17.32 0 0 1 49.8 10 Z M 56.9 22.5 A 17.495 17.495 0 0 0 57.219 25.876 A 16.166 16.166 0 0 0 57.275 26.15 A 10.817 10.817 0 0 0 57.793 27.882 A 8.501 8.501 0 0 0 58.45 29.2 Q 59.25 30.5 60.55 31.3 A 5.265 5.265 0 0 0 62.339 31.978 A 7.248 7.248 0 0 0 63.7 32.1 A 9.514 9.514 0 0 0 63.77 32.1 Q 69.401 32.1 70.321 25.379 A 21.324 21.324 0 0 0 70.5 22.5 A 18.203 18.203 0 0 0 70.289 19.688 A 16.089 16.089 0 0 0 70.125 18.8 A 10.817 10.817 0 0 0 69.607 17.068 A 8.501 8.501 0 0 0 68.95 15.75 Q 68.15 14.45 66.85 13.675 A 5.348 5.348 0 0 0 65.112 13.028 A 7.428 7.428 0 0 0 63.7 12.9 A 9.514 9.514 0 0 0 63.63 12.9 Q 57.999 12.9 57.079 19.621 A 21.324 21.324 0 0 0 56.9 22.5 Z" vector-effect="non-scaling-stroke"/></g></svg>